HIERARCHY
ROOT Hips
{
	OFFSET 0.00000 0.00000 0.00000
	CHANNELS 6 Xposition Yposition Zposition Zrotation Yrotation Xrotation 
	JOINT RightUpLegDummy
	{
		OFFSET 0 0 0
		CHANNELS 3 Zrotation Yrotation Xrotation
		JOINT RightUpLeg
		{
			OFFSET -3.52197 -3.41223 0.04002
			CHANNELS 3 Zrotation Yrotation Xrotation
			JOINT RightLeg
			{
				OFFSET 0.00006 -17.42390 1.60435
				CHANNELS 3 Zrotation Yrotation Xrotation
				JOINT RightFoot
				{
					OFFSET 0.06154 -16.50078 -1.63900
					CHANNELS 3 Zrotation Yrotation Xrotation
					JOINT RightToes
					{
						OFFSET 0.00298 -1.73825 3.34613
						CHANNELS 3 Zrotation Yrotation Xrotation
						End Site
						{
							OFFSET 0.00480 -0.05416 3.85043
						}
					}
				}
			}
		}
	}
	JOINT SpineDummy
	{
		OFFSET 0 0 0
		CHANNELS 3 Zrotation Yrotation Xrotation
		JOINT Spine
		{
			OFFSET 0.00000 4.68130 0.00000
			CHANNELS 3 Zrotation Yrotation Xrotation
			JOINT Spine1
			{
				OFFSET -0.00000 10.10138 0.05002
				CHANNELS 3 Zrotation Yrotation Xrotation
				JOINT HEadDummy
				{
					OFFSET 0 0 0
					CHANNELS 3 Zrotation Yrotation Xrotation
					JOINT Head
					{
						OFFSET -0.00000 3.43865 0.00438
						CHANNELS 3 Zrotation Yrotation Xrotation
						End Site
						{
							OFFSET -0.11417 5.02924 0.98962
						}
					}
				}
				JOINT LeftShoulder1Dummy
				{
					OFFSET 0 0 0
					CHANNELS 3 Zrotation Yrotation Xrotation
					JOINT LeftShoulder1
					{
						OFFSET 3.53937 -0.14262 -0.08662
						CHANNELS 3 Zrotation Yrotation Xrotation
						JOINT LeftArm
						{
							OFFSET 4.04833 -0.00133 0.12681
							CHANNELS 3 Zrotation Yrotation Xrotation
							JOINT LeftForeArm
							{
								OFFSET 10.33880 -0.01036 -0.55515
								CHANNELS 3 Zrotation Yrotation Xrotation
								JOINT LeftHand
								{
									OFFSET 8.69677 0.07543 0.40060
									CHANNELS 3 Zrotation Yrotation Xrotation
									End Site
									{
										OFFSET 5.28377 -0.21905 0.59205
									}
								}
							}
						}
					}
				}
				JOINT RightShoulderDummy
				{
					OFFSET 0 0 0
					CHANNELS 3 Zrotation Yrotation Xrotation
					JOINT RightShoulder
					{
						OFFSET -3.53937 -0.14262 -0.08660
						CHANNELS 3 Zrotation Yrotation Xrotation
						JOINT RightArm
						{
							OFFSET -4.04833 -0.00133 0.12683
							CHANNELS 3 Zrotation Yrotation Xrotation
							JOINT RightForeArm
							{
								OFFSET -10.37987 -0.01039 -0.55511
								CHANNELS 3 Zrotation Yrotation Xrotation
								JOINT RightHand
								{
									OFFSET -8.67398 0.07538 0.40058
									CHANNELS 3 Zrotation Yrotation Xrotation
									End Site
									{
										OFFSET -5.24810 -0.21916 0.59204
									}
								}
							}
						}
					}
				}
			}
		}
	}
	JOINT LeftUpLegDummy
	{
		OFFSET 0 0 0
		CHANNELS 3 Zrotation Yrotation Xrotation
		JOINT LeftUpLeg
		{
			OFFSET 3.52197 -3.41223 0.04002
			CHANNELS 3 Zrotation Yrotation Xrotation
			JOINT LeftLeg
			{
				OFFSET -0.00012 -17.42399 1.60337
				CHANNELS 3 Zrotation Yrotation Xrotation
				JOINT LeftFoot
				{
					OFFSET -0.09972 -16.50070 -1.63802
					CHANNELS 3 Zrotation Yrotation Xrotation
					JOINT LeftToes
					{
						OFFSET -0.01575 -1.73823 3.34611
						CHANNELS 3 Zrotation Yrotation Xrotation
						End Site
						{
							OFFSET 0.03150 -0.01868 3.85031
						}
					}
				}
			}
		}
	}
}
MOTION
Frames: 16
Frame Time: 0.033333
-0.4900 40.1597 -1.8135 -63.1330 80.5588 -41.8653 0.0000 0.0000 0.0000 -10.6390 -8.8469 12.7813 -6.6261 -7.6883 34.2590 12.0357 -3.4709 21.4534 0.0000 0.0000 -0.0000 0.0000 0.0000 0.0000 -9.5195 7.4663 1.7108 0.7912 6.7345 3.1913 0.0000 0.0000 0.0000 9.7349 -4.7108 -21.9928 0.0000 0.0000 0.0000 -12.2373 -3.9207 1.4350 -54.6684 6.2378 14.2002 170.6810 -84.7299 -142.8844 0.8966 -2.4253 -0.0392 0.0000 0.0000 0.0000 16.9868 2.8218 1.4971 53.2630 26.7697 27.5005 2.7454 84.3423 6.5592 -1.0670 -2.8794 -0.0474 0.0000 0.0000 0.0000 4.8056 6.7968 -24.4624 -2.8807 19.8040 -0.6680 -3.9617 0.4081 0.5266 -0.0000 -0.0000 0.0000
-0.1709 40.2339 -1.8337 -65.4830 80.5100 -43.5524 0.0000 0.0000 0.0000 -9.5136 -5.0574 16.2025 -5.6832 -9.3553 24.7936 10.1190 -2.7469 19.6581 0.0000 0.0000 -0.0000 0.0000 0.0000 0.0000 -8.8007 7.7471 0.1847 0.4133 7.3146 2.9072 0.0000 0.0000 0.0000 9.6558 -5.9591 -21.0205 0.0000 0.0000 0.0000 -12.3988 -3.4914 1.3623 -54.2354 6.9700 14.6517 170.2895 -84.7975 -141.9482 -0.2389 -2.2761 0.0356 0.0000 0.0000 0.0000 17.3909 2.8534 1.5282 52.1705 25.8873 26.9062 2.4466 84.1000 6.6780 -0.8601 -3.0741 -0.0435 0.0000 0.0000 0.0000 4.8909 6.6689 -24.2384 -3.1809 19.5593 -1.7316 -2.2752 0.2384 0.8817 -0.0000 -0.0000 0.0000
0.0204 40.2873 -1.9014 -66.5270 80.1249 -44.1006 0.0000 0.0000 0.0000 -8.7167 -2.2982 16.9247 -4.9116 -9.5063 20.8175 8.8974 -2.0142 14.9091 0.0000 0.0000 -0.0000 0.0000 0.0000 0.0000 -7.0848 7.9795 -0.6609 -0.8507 7.9263 2.5110 0.0000 0.0000 0.0000 9.4401 -6.5621 -20.5470 0.0000 0.0000 0.0000 -12.6546 -2.9742 1.2768 -53.7768 7.0902 14.9691 169.7710 -84.8762 -140.7072 -1.5420 -2.4338 0.1249 0.0000 0.0000 0.0000 17.8292 2.8187 1.5455 51.3861 24.5837 26.5053 2.1188 83.8308 6.8635 -0.4679 -3.1545 -0.0362 0.0000 0.0000 0.0000 5.1054 6.6971 -24.2719 -3.2122 19.5788 -2.1582 -1.1690 0.1203 0.9304 -0.0000 -0.0000 0.0000
0.0378 40.2990 -1.9718 -65.1558 79.5845 -42.9654 0.0000 0.0000 0.0000 -9.5588 -2.6643 15.6840 -4.3514 -7.8147 22.4822 9.6680 -2.0293 12.8315 0.0000 0.0000 -0.0000 0.0000 0.0000 0.0000 -5.5924 8.1741 -0.2558 -2.0875 8.3270 2.2034 0.0000 0.0000 0.0000 9.3771 -6.3749 -20.7135 0.0000 0.0000 0.0000 -12.7701 -2.6123 1.2120 -54.0466 7.1296 14.6507 169.8875 -84.7484 -140.5489 -2.2352 -2.5154 0.1737 0.0000 0.0000 0.0000 18.1417 2.8067 1.5608 50.7172 23.3000 26.3342 2.0445 83.5987 6.7878 -0.3209 -3.1832 -0.0336 0.0000 0.0000 0.0000 5.3426 6.8838 -24.1132 -2.9721 19.8821 -1.7344 -1.1337 0.1144 0.5551 -0.0000 -0.0000 0.0000
-0.0675 40.2606 -1.9965 -63.8398 79.4074 -42.4872 0.0000 0.0000 0.0000 -11.1147 -4.8008 13.6528 -4.6697 -6.8577 27.3307 11.1924 -2.5326 14.6243 0.0000 0.0000 -0.0000 0.0000 0.0000 0.0000 -5.7859 8.0397 0.7948 -1.7571 7.9953 2.1529 0.0000 0.0000 0.0000 9.3340 -5.6383 -20.9043 0.0000 0.0000 0.0000 -12.6059 -2.5291 1.1865 -55.2419 7.2776 13.8753 170.5256 -84.4597 -141.4268 -1.8672 -2.2801 0.1430 0.0000 0.0000 0.0000 18.1311 2.8876 1.5801 50.0922 22.1691 26.4006 2.1672 83.4753 6.5198 -0.5710 -3.1825 -0.0383 0.0000 0.0000 0.0000 5.4000 7.0553 -23.7414 -2.6695 19.9881 -0.8147 -1.9599 0.1934 -0.0750 -0.0000 -0.0000 0.0000
-0.1681 40.2046 -1.9871 -65.1557 79.8737 -44.6301 0.0000 0.0000 0.0000 -12.0589 -6.6336 11.1853 -6.6259 -8.0164 33.0591 11.6308 -2.7754 15.9943 0.0000 0.0000 -0.0000 0.0000 0.0000 0.0000 -7.4070 7.4636 1.2689 0.2424 6.9080 2.5732 0.0000 0.0000 0.0000 9.0268 -4.8503 -20.6343 0.0000 0.0000 0.0000 -12.5426 -2.6479 1.2063 -56.2025 6.9083 13.4423 170.8963 -84.3452 -142.1953 -0.9176 -2.0889 0.0768 0.0000 0.0000 0.0000 17.8219 2.9484 1.5767 49.7228 20.8953 26.4980 2.2362 83.4547 6.4051 -1.0351 -3.0353 -0.0469 0.0000 0.0000 0.0000 5.1888 7.0463 -23.3342 -2.6092 19.5226 -0.1758 -2.9924 0.2848 -0.6119 -0.0000 -0.0000 0.0000
-0.1891 40.1607 -1.9743 -68.4766 80.7613 -48.6621 0.0000 0.0000 0.0000 -12.1208 -7.3463 8.1652 -9.2251 -9.2427 38.9005 11.0542 -2.4440 14.0342 0.0000 0.0000 -0.0000 0.0000 0.0000 0.0000 -9.1358 6.6787 1.0615 2.4184 5.6400 3.4306 0.0000 0.0000 0.0000 8.5437 -4.3238 -20.1153 0.0000 0.0000 0.0000 -12.9606 -2.8464 1.2693 -55.7102 5.3718 13.8418 170.5674 -84.6463 -142.2281 -0.3785 -2.2538 0.0446 0.0000 0.0000 0.0000 17.5505 2.8749 1.5427 49.7452 19.0883 26.2553 2.1093 83.4461 6.5825 -1.3110 -2.7740 -0.0528 0.0000 0.0000 0.0000 4.7371 6.7526 -22.7545 -2.7401 18.8000 -0.0621 -3.5244 0.3292 -0.8355 -0.0000 -0.0000 0.0000
-0.1922 40.1054 -1.9448 -71.4167 81.7565 -52.5848 0.0000 0.0000 0.0000 -11.6729 -6.7713 4.8067 -10.6907 -8.8711 44.4539 10.7547 -2.0834 10.9687 0.0000 0.0000 -0.0000 0.0000 0.0000 0.0000 -10.5090 5.9845 1.1117 3.7441 4.5987 4.4008 0.0000 0.0000 0.0000 8.1865 -3.9304 -19.7549 0.0000 0.0000 0.0000 -13.6199 -3.0679 1.3528 -54.1290 2.8613 14.6657 169.4774 -85.2610 -141.3830 -0.7676 -2.5008 0.0736 0.0000 0.0000 0.0000 17.5170 2.7663 1.5146 50.0938 16.7541 25.5401 1.8371 83.3793 6.9324 -1.0311 -2.6751 -0.0470 0.0000 0.0000 0.0000 4.0883 6.1581 -21.9758 -2.6050 18.3519 0.2401 -2.9683 0.2788 -0.7829 -0.0000 -0.0000 0.0000
-0.2359 40.0267 -1.8861 -75.0004 82.7231 -57.4730 0.0000 0.0000 0.0000 -10.8921 -5.5643 1.4165 -10.1783 -7.0983 49.0562 11.1577 -1.9909 9.1787 0.0000 0.0000 -0.0000 0.0000 0.0000 0.0000 -11.7912 5.3291 1.7917 4.6756 3.5819 5.2381 0.0000 0.0000 0.0000 7.9469 -3.3438 -19.6379 0.0000 0.0000 0.0000 -13.9774 -3.3292 1.4286 -52.7589 0.1159 15.1739 167.6530 -85.9461 -139.5102 -1.6279 -2.4795 0.1315 0.0000 0.0000 0.0000 17.5439 2.7898 1.5218 50.6588 14.3770 24.6285 1.5675 83.3041 7.2845 -0.3445 -2.8688 -0.0324 0.0000 0.0000 0.0000 3.3532 5.4092 -21.2655 -2.0463 18.0947 1.1820 -1.1646 0.1128 -0.5610 -0.0000 -0.0000 0.0000
-0.2937 39.9553 -1.8206 -81.8929 83.4932 -65.6769 0.0000 0.0000 0.0000 -9.7504 -4.4392 -2.0584 -8.7314 -5.2791 52.4382 11.6823 -1.9416 7.7498 0.0000 0.0000 -0.0000 0.0000 0.0000 0.0000 -12.9293 4.5208 2.4290 5.7447 2.3725 6.2265 0.0000 0.0000 0.0000 7.5724 -2.4307 -19.6476 0.0000 0.0000 0.0000 -13.8613 -3.6635 1.4908 -52.0994 -2.4393 15.1097 165.3452 -86.5282 -136.9307 -2.0099 -2.3419 0.1540 0.0000 0.0000 0.0000 17.5036 2.9296 1.5532 51.3081 12.4611 23.8790 1.4407 83.3155 7.4808 0.0936 -3.1095 -0.0251 0.0000 0.0000 0.0000 2.7129 4.7445 -20.7875 -1.3384 17.6867 2.5144 1.1673 -0.1094 -0.3814 -0.0000 -0.0000 0.0000
-0.3165 39.9111 -1.7710 -88.3880 83.9430 -73.4730 0.0000 0.0000 0.0000 -8.5591 -3.2321 -5.6647 -8.0647 -4.3977 54.8315 12.0070 -1.7391 5.2692 0.0000 0.0000 -0.0000 0.0000 0.0000 0.0000 -13.5818 3.7040 2.4902 6.4736 1.2897 7.8030 0.0000 0.0000 0.0000 7.0223 -1.3281 -19.6916 0.0000 0.0000 0.0000 -13.5665 -4.0502 1.5510 -51.6316 -4.8192 14.7082 163.4823 -86.9127 -135.0688 -1.4665 -2.4383 0.1195 0.0000 0.0000 0.0000 17.5603 3.0367 1.5824 51.9191 11.1440 23.4246 1.4676 83.3802 7.4735 -0.0351 -3.1180 -0.0279 0.0000 0.0000 0.0000 2.2542 4.3109 -20.2412 -0.6864 17.3380 3.9461 2.9293 -0.2725 -0.5662 -0.0000 -0.0000 0.0000
-0.2946 39.8809 -1.7350 -87.6403 84.2641 -74.2911 0.0000 0.0000 0.0000 -7.7170 -1.5562 -9.1310 -8.4970 -4.3460 56.4260 12.2404 -1.4636 2.3251 0.0000 0.0000 -0.0000 0.0000 0.0000 0.0000 -13.7982 3.1665 2.2969 6.4122 0.6961 9.7936 0.0000 0.0000 0.0000 6.4758 -0.2167 -19.6733 0.0000 0.0000 0.0000 -13.4230 -4.4002 1.6126 -50.9037 -6.9741 14.2362 163.1081 -87.0785 -135.3294 -0.3764 -2.7181 0.0497 0.0000 0.0000 0.0000 17.7586 3.0601 1.6001 52.5570 10.2872 23.2416 1.4736 83.3449 7.4479 -0.2866 -2.9617 -0.0314 0.0000 0.0000 0.0000 1.9093 4.1118 -19.1797 -0.0708 17.4714 5.3405 3.7806 -0.3294 -1.1745 -0.0000 -0.0000 0.0000
-0.2497 39.8592 -1.7072 -81.6823 84.5746 -70.1042 0.0000 0.0000 0.0000 -7.1467 0.0426 -12.2167 -9.2406 -4.6272 57.0384 12.4592 -1.2339 -0.0773 0.0000 0.0000 -0.0000 0.0000 0.0000 0.0000 -13.9288 2.8118 2.3131 6.0856 0.3501 11.5712 0.0000 0.0000 0.0000 5.9869 0.8464 -19.5178 0.0000 0.0000 0.0000 -13.5074 -4.6381 1.6672 -50.0589 -8.6875 13.7693 163.9041 -87.0981 -137.1117 0.6618 -2.9099 -0.0219 0.0000 0.0000 0.0000 17.8151 3.0897 1.6108 53.4294 9.7191 23.2919 1.3032 83.1825 7.6246 -0.2674 -2.8903 -0.0319 0.0000 0.0000 0.0000 1.5982 4.0310 -17.6230 0.4497 17.8991 6.3942 4.2335 -0.3410 -1.8369 -0.0000 -0.0000 0.0000
-0.1983 39.8560 -1.6938 -79.3688 84.8728 -69.3712 0.0000 0.0000 0.0000 -6.5248 0.5147 -14.8488 -9.7896 -5.0985 56.2295 12.7731 -1.0420 -2.1194 0.0000 0.0000 -0.0000 0.0000 0.0000 0.0000 -14.0457 2.2692 2.4463 6.0767 -0.2491 12.9186 0.0000 0.0000 0.0000 5.4629 1.8647 -19.3094 0.0000 0.0000 0.0000 -13.6875 -4.7664 1.7070 -49.4247 -9.9118 13.3441 164.6899 -87.0923 -138.7119 1.3467 -3.0075 -0.0711 0.0000 0.0000 0.0000 17.6013 3.1802 1.6196 54.5141 9.2788 23.4990 1.0579 83.1130 7.9743 -0.2442 -2.9246 -0.0366 0.0000 0.0000 0.0000 1.3021 3.9102 -16.0182 0.7263 18.0281 6.8496 4.7053 -0.3630 -2.2037 -0.0000 -0.0000 0.0000
-0.1270 39.8709 -1.7014 -84.7989 85.2111 -76.0694 0.0000 0.0000 0.0000 -5.7730 -0.3853 -16.7447 -9.9192 -5.7906 53.5285 13.3991 -0.8648 -4.1134 0.0000 0.0000 -0.0000 0.0000 0.0000 0.0000 -13.8905 1.4311 2.3626 6.1244 -1.1295 14.2157 0.0000 0.0000 0.0000 4.8978 2.7819 -19.2427 0.0000 0.0000 0.0000 -13.7898 -4.8259 1.7270 -49.1583 -10.8591 13.1114 165.0201 -87.1195 -139.5529 1.5883 -3.1361 -0.0893 0.0000 0.0000 0.0000 17.3995 3.2603 1.6264 55.4666 8.8070 23.7295 0.9305 83.3749 8.2679 -0.4981 -2.8718 -0.0398 0.0000 0.0000 0.0000 1.0081 3.6868 -14.5475 0.7598 17.6519 6.8074 5.1131 -0.3896 -2.3136 -0.0000 -0.0000 0.0000
-0.0136 39.8954 -1.7227 -94.6478 85.4548 -87.1228 0.0000 0.0000 0.0000 -4.9950 -1.9006 -17.4097 -9.0799 -6.3928 48.5555 14.4170 -0.7655 -5.4590 0.0000 0.0000 -0.0000 0.0000 0.0000 0.0000 -13.3984 0.5468 1.9958 5.8840 -1.9631 15.7913 0.0000 0.0000 0.0000 4.3739 3.4767 -19.3910 0.0000 0.0000 0.0000 -13.7685 -4.8455 1.7295 -49.2928 -11.7349 13.2488 165.1878 -87.1499 -140.0698 1.4574 -3.2104 -0.0800 0.0000 0.0000 0.0000 17.4085 3.2536 1.6254 56.0739 8.2465 23.8780 0.9534 83.9497 8.4271 -0.7122 -2.6760 -0.0392 0.0000 0.0000 0.0000 0.7264 3.4303 -12.9622 0.6899 17.0582 6.4898 5.3344 -0.4031 -2.3551 -0.0000 -0.0000 0.0000
